# xmcd
#
# Track frame offsets: 
#        150
#        33255
#        55042
#        80843
#        96799
#        121815
#        149231
#        187602
#        217038
#
# Disc length: 2992 seconds
#
# Revision: 0
# Processed by: cddbd v1.5.2PL0 Copyright (c) Steve Scherf et al.
# Submitted via: ExactAudioCopy v0.95b4
#
DISCID=7b0bae09
DTITLE=Alexey Kuznetsov - Concert in Jolympic Village oct 24_1987
DYEAR=2006
DGENRE=Blues
TTITLE0=Softly in the morning Sunrise
TTITLE1=Stella by Starlight
TTITLE2=The Child is Born
TTITLE3=Round About Midnight
TTITLE4=Careful
TTITLE5=Eiderdown
TTITLE6=No Greater Love
TTITLE7=Vernye Druzya(bonus)
TTITLE8=My Melancoly Baby (bonus)
EXTD=
EXTT0=
EXTT1=
EXTT2=
EXTT3=
EXTT4=
EXTT5=
EXTT6=
EXTT7=
EXTT8=
PLAYORDER=
